<?xml version="1.0" encoding="utf-8"?>
<svg version="1.1" xmlns:xlink="http://www.w3.org/1999/xlink" width="200px" height="161px" xmlns="http://www.w3.org/2000/svg">
  <defs>
    <mask fill="white" id="clip14">
      <path d="M 4 9  L 30.8000021784054 9  L 38 0  L 45.1976706248645 9  L 196 9  C 198.24 9  200 10.76  200 13  L 200 157  C 200 159.24  198.24 161  196 161  L 4 161  C 1.76 161  0 159.24  0 157  L 0 13  C 0 10.76  1.76 9  4 9  Z " fill-rule="evenodd" />
    </mask>
  </defs>
  <g>
    <path d="M 4 9  L 30.8000021784054 9  L 38 0  L 45.1976706248645 9  L 196 9  C 198.24 9  200 10.76  200 13  L 200 157  C 200 159.24  198.24 161  196 161  L 4 161  C 1.76 161  0 159.24  0 157  L 0 13  C 0 10.76  1.76 9  4 9  Z " fill-rule="nonzero" fill="#ffffff" stroke="none" />
    <path d="M 4 9  L 30.8000021784054 9  L 38 0  L 45.1976706248645 9  L 196 9  C 198.24 9  200 10.76  200 13  L 200 157  C 200 159.24  198.24 161  196 161  L 4 161  C 1.76 161  0 159.24  0 157  L 0 13  C 0 10.76  1.76 9  4 9  Z " stroke-width="2" stroke="#e4e4e4" fill="none" mask="url(#clip14)" />
  </g>
</svg>