<?xml version="1.0" encoding="utf-8"?>
<svg version="1.1" xmlns:xlink="http://www.w3.org/1999/xlink" width="40px" height="40px" xmlns="http://www.w3.org/2000/svg">
  <defs>
    <filter x="904px" y="395px" width="40px" height="40px" filterUnits="userSpaceOnUse" id="filter11">
      <feOffset dx="1" dy="1" in="SourceAlpha" result="shadowOffsetInner" />
      <feGaussianBlur stdDeviation="2.5" in="shadowOffsetInner" result="shadowGaussian" />
      <feComposite in2="shadowGaussian" operator="atop" in="SourceAlpha" result="shadowComposite" />
      <feColorMatrix type="matrix" values="0 0 0 0 0  0 0 0 0 0  0 0 0 0 0  0 0 0 0.698039215686274 0  " in="shadowComposite" />
    </filter>
    <g id="widget12">
      <path d="M 923 399  C 931.4 399  938 405.6  938 414  C 938 422.4  931.4 429  923 429  C 914.6 429  908 422.4  908 414  C 908 405.6  914.6 399  923 399  Z " fill-rule="nonzero" fill="#d9001b" stroke="none" />
      <path d="M 923 399.5  C 931.12 399.5  937.5 405.88  937.5 414  C 937.5 422.12  931.12 428.5  923 428.5  C 914.88 428.5  908.5 422.12  908.5 414  C 908.5 405.88  914.88 399.5  923 399.5  Z " stroke-width="1" stroke="#ffffff" fill="none" />
    </g>
  </defs>
  <g transform="matrix(1 0 0 1 -904 -395 )">
    <use xlink:href="#widget12" filter="url(#filter11)" />
    <use xlink:href="#widget12" />
  </g>
</svg>