<?xml version="1.0" encoding="utf-8"?>
<svg version="1.1" xmlns:xlink="http://www.w3.org/1999/xlink" width="12px" height="7px" xmlns="http://www.w3.org/2000/svg">
  <g transform="matrix(1 0 0 1 -524 -37 )">
    <path d="M 11.8797595190381 5.72508591065291  C 11.9599198396793 5.80526918671249  12 5.89747995418098  12 6.00171821305841  C 12 6.10595647193587  11.9599198396793 6.19816723940436  11.8797595190381 6.27835051546391  L 11.2785571142285 6.87972508591065  C 11.1983967935872 6.95990836197022  11.1062124248497 7  11.002004008016 7  C 10.8977955911824 7  10.8056112224449 6.95990836197022  10.7254509018036 6.87972508591065  L 6 2.15292096219932  L 1.27454909819642 6.87972508591065  C 1.1943887775551 6.95990836197022  1.10220440881761 7  0.997995991983998 7  C 0.893787575150327 7  0.801603206412835 6.95990836197022  0.721442885771523 6.87972508591065  L 0.120240480961911 6.27835051546391  C 0.040080160320656 6.19816723940436  0 6.10595647193587  0 6.00171821305841  C 0 5.89747995418098  0.040080160320656 5.80526918671249  0.120240480961911 5.72508591065291  L 5.72344689378758 0.12027491408935  C 5.80360721442884 0.0400916380297787  5.89579158316633 0  6 0  C 6.10420841683367 0  6.19639278557116 0.0400916380297787  6.27655310621242 0.12027491408935  L 11.8797595190381 5.72508591065291  Z " fill-rule="nonzero" fill="#bbbba9" stroke="none" transform="matrix(1 0 0 1 524 37 )" />
  </g>
</svg>