<?xml version="1.0" encoding="utf-8"?>
<svg version="1.1" xmlns:xlink="http://www.w3.org/1999/xlink" width="12px" height="12px" viewBox="180 268  12 12" xmlns="http://www.w3.org/2000/svg">
  <path d="M 186 268  C 189.36 268  192 270.64  192 274  C 192 277.36  189.36 280  186 280  C 182.64 280  180 277.36  180 274  C 180 270.64  182.64 268  186 268  Z " fill-rule="nonzero" fill="#ffffff" stroke="none" />
  <path d="M 186 268.5  C 189.08 268.5  191.5 270.92  191.5 274  C 191.5 277.08  189.08 279.5  186 279.5  C 182.92 279.5  180.5 277.08  180.5 274  C 180.5 270.92  182.92 268.5  186 268.5  Z " stroke-width="1" stroke="#797979" fill="none" />
  <path d="M 186 277  C 184.32 277  183 275.68  183 274  C 183 272.32  184.32 271  186 271  C 187.68 271  189 272.32  189 274  C 189 275.68  187.68 277  186 277  " fill-rule="nonzero" fill="#797979" stroke="none" />
</svg>