<?xml version="1.0" encoding="utf-8"?>
<svg version="1.1" xmlns:xlink="http://www.w3.org/1999/xlink" width="12px" height="12px" viewBox="267 268  12 12" xmlns="http://www.w3.org/2000/svg">
  <path d="M 273 268  C 276.36 268  279 270.64  279 274  C 279 277.36  276.36 280  273 280  C 269.64 280  267 277.36  267 274  C 267 270.64  269.64 268  273 268  Z " fill-rule="nonzero" fill="#ffffff" stroke="none" />
  <path d="M 273 268.5  C 276.08 268.5  278.5 270.92  278.5 274  C 278.5 277.08  276.08 279.5  273 279.5  C 269.92 279.5  267.5 277.08  267.5 274  C 267.5 270.92  269.92 268.5  273 268.5  Z " stroke-width="1" stroke="#797979" fill="none" />
  <path d="M 273 277  C 271.32 277  270 275.68  270 274  C 270 272.32  271.32 271  273 271  C 274.68 271  276 272.32  276 274  C 276 275.68  274.68 277  273 277  " fill-rule="nonzero" fill="#797979" stroke="none" />
</svg>