<?xml version="1.0" encoding="utf-8"?>
<svg version="1.1" xmlns:xlink="http://www.w3.org/1999/xlink" width="200px" height="89px" xmlns="http://www.w3.org/2000/svg">
  <defs>
    <mask fill="white" id="clip10">
      <path d="M 4 5  L 30.8000021784054 5  L 38 0  L 45.1976706248645 5  L 196 5  C 198.24 4.97515527950311  200 5.94807453416149  200 7.18633540372671  L 200 86.7888198757764  C 200 88.0270807453416  198.24 89  196 89  L 4 89  C 1.76 89  0 88.0270807453416  0 86.7888198757764  L 0 7.18633540372671  C 0 5.94807453416149  1.76 4.97515527950311  4 5  Z " fill-rule="evenodd" />
    </mask>
  </defs>
  <g>
    <path d="M 4 5  L 30.8000021784054 5  L 38 0  L 45.1976706248645 5  L 196 5  C 198.24 4.97515527950311  200 5.94807453416149  200 7.18633540372671  L 200 86.7888198757764  C 200 88.0270807453416  198.24 89  196 89  L 4 89  C 1.76 89  0 88.0270807453416  0 86.7888198757764  L 0 7.18633540372671  C 0 5.94807453416149  1.76 4.97515527950311  4 5  Z " fill-rule="nonzero" fill="#ffffff" stroke="none" />
    <path d="M 4 5  L 30.8000021784054 5  L 38 0  L 45.1976706248645 5  L 196 5  C 198.24 4.97515527950311  200 5.94807453416149  200 7.18633540372671  L 200 86.7888198757764  C 200 88.0270807453416  198.24 89  196 89  L 4 89  C 1.76 89  0 88.0270807453416  0 86.7888198757764  L 0 7.18633540372671  C 0 5.94807453416149  1.76 4.97515527950311  4 5  Z " stroke-width="2" stroke="#e4e4e4" fill="none" mask="url(#clip10)" />
  </g>
</svg>