<?xml version="1.0" encoding="utf-8"?>
<svg version="1.1" xmlns:xlink="http://www.w3.org/1999/xlink" width="40px" height="40px" xmlns="http://www.w3.org/2000/svg">
  <defs>
    <filter x="770px" y="66px" width="40px" height="40px" filterUnits="userSpaceOnUse" id="filter8">
      <feOffset dx="1" dy="1" in="SourceAlpha" result="shadowOffsetInner" />
      <feGaussianBlur stdDeviation="2.5" in="shadowOffsetInner" result="shadowGaussian" />
      <feComposite in2="shadowGaussian" operator="atop" in="SourceAlpha" result="shadowComposite" />
      <feColorMatrix type="matrix" values="0 0 0 0 0  0 0 0 0 0  0 0 0 0 0  0 0 0 0.698039215686274 0  " in="shadowComposite" />
    </filter>
    <g id="widget9">
      <path d="M 789 70  C 797.4 70  804 76.6  804 85  C 804 93.4  797.4 100  789 100  C 780.6 100  774 93.4  774 85  C 774 76.6  780.6 70  789 70  Z " fill-rule="nonzero" fill="#009dd9" stroke="none" />
      <path d="M 789 70.5  C 797.12 70.5  803.5 76.88  803.5 85  C 803.5 93.12  797.12 99.5  789 99.5  C 780.88 99.5  774.5 93.12  774.5 85  C 774.5 76.88  780.88 70.5  789 70.5  Z " stroke-width="1" stroke="#ffffff" fill="none" />
    </g>
  </defs>
  <g transform="matrix(1 0 0 1 -770 -66 )">
    <use xlink:href="#widget9" filter="url(#filter8)" />
    <use xlink:href="#widget9" />
  </g>
</svg>