<?xml version="1.0" encoding="utf-8"?>
<svg version="1.1" xmlns:xlink="http://www.w3.org/1999/xlink" width="8px" height="5px" xmlns="http://www.w3.org/2000/svg">
  <g transform="matrix(1 0 0 1 -1357 -264 )">
    <path d="M 7.91983967935873 4.08934707903779  C 7.97327989311956 4.14662084765178  8 4.21248568155784  8 4.28694158075601  C 8 4.36139747995419  7.97327989311956 4.42726231386025  7.91983967935873 4.48453608247422  L 7.51903807615232 4.91408934707904  C 7.46559786239144 4.97136311569302  7.40414161656645 5  7.33466933867733 5  C 7.26519706078826 5  7.20374081496326 4.97136311569302  7.15030060120239 4.91408934707904  L 4 1.53780068728523  L 0.849699398797611 4.91408934707904  C 0.796259185036737 4.97136311569302  0.734802939211742 5  0.665330661322666 5  C 0.595858383433551 5  0.534402137608557 4.97136311569302  0.480961923847682 4.91408934707904  L 0.0801603206412741 4.48453608247422  C 0.0267201068804373 4.42726231386025  0 4.36139747995419  0 4.28694158075601  C 0 4.21248568155784  0.0267201068804373 4.14662084765178  0.0801603206412741 4.08934707903779  L 3.81563126252505 0.0859106529209644  C 3.86907147628589 0.0286368843069848  3.93052772211089 0  4 0  C 4.06947227788911 0  4.13092852371411 0.0286368843069848  4.18436873747495 0.0859106529209644  L 7.91983967935873 4.08934707903779  Z " fill-rule="nonzero" fill="#bbbba9" stroke="none" transform="matrix(1 0 0 1 1357 264 )" />
  </g>
</svg>