<?xml version="1.0" encoding="utf-8"?>
<svg version="1.1" xmlns:xlink="http://www.w3.org/1999/xlink" width="127px" height="89px" xmlns="http://www.w3.org/2000/svg">
  <defs>
    <mask fill="white" id="clip13">
      <path d="M 2.54 5  L 19.5580013832874 5  L 24.13 0  L 28.700520846789 5  L 124.46 5  C 125.8824 4.97515527950311  127 5.94807453416149  127 7.18633540372671  L 127 86.7888198757764  C 127 88.0270807453416  125.8824 89  124.46 89  L 2.54 89  C 1.1176 89  0 88.0270807453416  0 86.7888198757764  L 0 7.18633540372671  C 0 5.94807453416149  1.1176 4.97515527950311  2.54 5  Z " fill-rule="evenodd" />
    </mask>
  </defs>
  <g>
    <path d="M 2.54 5  L 19.5580013832874 5  L 24.13 0  L 28.700520846789 5  L 124.46 5  C 125.8824 4.97515527950311  127 5.94807453416149  127 7.18633540372671  L 127 86.7888198757764  C 127 88.0270807453416  125.8824 89  124.46 89  L 2.54 89  C 1.1176 89  0 88.0270807453416  0 86.7888198757764  L 0 7.18633540372671  C 0 5.94807453416149  1.1176 4.97515527950311  2.54 5  Z " fill-rule="nonzero" fill="#ffffff" stroke="none" />
    <path d="M 2.54 5  L 19.5580013832874 5  L 24.13 0  L 28.700520846789 5  L 124.46 5  C 125.8824 4.97515527950311  127 5.94807453416149  127 7.18633540372671  L 127 86.7888198757764  C 127 88.0270807453416  125.8824 89  124.46 89  L 2.54 89  C 1.1176 89  0 88.0270807453416  0 86.7888198757764  L 0 7.18633540372671  C 0 5.94807453416149  1.1176 4.97515527950311  2.54 5  Z " stroke-width="2" stroke="#e4e4e4" fill="none" mask="url(#clip13)" />
  </g>
</svg>